<?xml version="1.0" standalone="no"?><!DOCTYPE svg PUBLIC "-//W3C//DTD SVG 1.1//EN" "http://www.w3.org/Graphics/SVG/1.1/DTD/svg11.dtd"><svg t="1593045324755" class="icon" viewBox="0 0 1024 1024" version="1.1" xmlns="http://www.w3.org/2000/svg" p-id="7616" xmlns:xlink="http://www.w3.org/1999/xlink" width="200" height="200"><defs><style type="text/css"></style></defs><path d="M567.957453 787.362488l0-95.78453c0-17.632589-14.294564-31.927153-31.927153-31.927153s-31.927153 14.294564-31.927153 31.927153l0 64.111157c0 17.49035-14.178931 31.66928-31.66928 31.66928l-255.92888 0c-17.49035 0-31.66928-14.178931-31.66928-31.66928L184.835705 244.346077c0-17.49035 14.178931-31.66928 31.66928-31.66928l255.92888 0c17.49035 0 31.66928 14.178931 31.66928 31.66928l0 64.0999 0 0 0 0.011256c0 17.632589 14.294564 31.927153 31.927153 31.927153s31.927153-14.294564 31.927153-31.927153l0-0.011256 0 0 0-95.773274c0-35.263132-28.586059-63.84919-63.84919-63.84919L184.832635 148.823514c-35.263132 0-63.84919 28.586059-63.84919 63.84919L120.983445 787.362488c0 35.263132 28.586059 63.84919 63.84919 63.84919l319.275627 0C539.371394 851.212702 567.957453 822.62562 567.957453 787.362488z" p-id="7617"></path><path d="M704.94029 286.170648c-12.367679 12.367679-12.367679 32.419364 0 44.787042l137.133264 137.133264L344.212576 468.090954c-17.49035 0-31.66928 14.178931-31.66928 31.66928l0 0.514723c0 17.49035 14.178931 31.66928 31.66928 31.66928l497.860978 0-137.133264 137.133264c-12.367679 12.367679-12.367679 32.419364 0 44.787042l0.364297 0.364297c12.367679 12.367679 32.419364 12.367679 44.787042 0L939.958932 524.361539c6.801916-5.808286 11.119245-14.440897 11.119245-24.086581l0-0.148379 0-0.005117 0-0.207731 0-0.005117 0-0.148379c0-9.645684-4.317329-18.277272-11.119245-24.086581L750.09163 285.806351c-12.367679-12.367679-32.419364-12.367679-44.787042 0L704.94029 286.170648z" p-id="7618"></path></svg>